<mxfile host="app.diagrams.net" modified="2021-11-04T03:43:29.609Z" agent="5.0 (Macintosh; Intel Mac OS X 10_15_7) AppleWebKit/537.36 (KHTML, like Gecko) Chrome/93.0.4577.63 Safari/537.36" etag="YU3vW8gXEXo3cpzSnT_g" version="15.6.8" type="github">
  <diagram id="2kHhhC5C8ryi1PW7w4x3" name="第 1 页">
    <mxGraphModel dx="2365" dy="2702" grid="1" gridSize="10" guides="1" tooltips="1" connect="1" arrows="1" fold="1" page="1" pageScale="1" pageWidth="827" pageHeight="1169" math="0" shadow="0">
      <root>
        <mxCell id="0" />
        <mxCell id="1" parent="0" />
        <mxCell id="oY1Nen4sBYmkMd0QGpDK-23" value="" style="rounded=0;whiteSpace=wrap;html=1;dashed=1;strokeWidth=4;strokeColor=#333333;" parent="1" vertex="1">
          <mxGeometry x="1010" y="45" width="730" height="490" as="geometry" />
        </mxCell>
        <mxCell id="oY1Nen4sBYmkMd0QGpDK-11" value="" style="rounded=1;whiteSpace=wrap;html=1;fillColor=#ffe6cc;strokeColor=#d79b00;" parent="1" vertex="1">
          <mxGeometry x="1140" y="115" width="210" height="270" as="geometry" />
        </mxCell>
        <mxCell id="oY1Nen4sBYmkMd0QGpDK-12" value="blackholecluster" style="rounded=1;whiteSpace=wrap;html=1;fillColor=#bac8d3;strokeColor=#23445d;" parent="1" vertex="1">
          <mxGeometry x="1290" y="235" width="130" height="30" as="geometry" />
        </mxCell>
        <mxCell id="oY1Nen4sBYmkMd0QGpDK-57" style="edgeStyle=orthogonalEdgeStyle;curved=1;orthogonalLoop=1;jettySize=auto;html=1;exitX=1;exitY=0.25;exitDx=0;exitDy=0;entryX=0.8;entryY=0.8;entryDx=0;entryDy=0;entryPerimeter=0;dashed=1;fontSize=11;strokeWidth=3;fillColor=#f8cecc;strokeColor=#b85450;" parent="1" source="oY1Nen4sBYmkMd0QGpDK-13" target="oY1Nen4sBYmkMd0QGpDK-55" edge="1">
          <mxGeometry relative="1" as="geometry" />
        </mxCell>
        <mxCell id="oY1Nen4sBYmkMd0QGpDK-13" value="passthroughcluster" style="rounded=1;whiteSpace=wrap;html=1;fillColor=#f8cecc;strokeColor=#b85450;" parent="1" vertex="1">
          <mxGeometry x="1290" y="195" width="130" height="30" as="geometry" />
        </mxCell>
        <mxCell id="oY1Nen4sBYmkMd0QGpDK-14" style="edgeStyle=orthogonalEdgeStyle;orthogonalLoop=1;jettySize=auto;html=1;entryX=0;entryY=0.5;entryDx=0;entryDy=0;curved=1;fillColor=#dae8fc;strokeColor=#6c8ebf;strokeWidth=3;" parent="1" source="oY1Nen4sBYmkMd0QGpDK-15" target="oY1Nen4sBYmkMd0QGpDK-18" edge="1">
          <mxGeometry relative="1" as="geometry" />
        </mxCell>
        <mxCell id="oY1Nen4sBYmkMd0QGpDK-15" value="inboundlistener" style="rounded=1;whiteSpace=wrap;html=1;fillColor=#dae8fc;strokeColor=#6c8ebf;" parent="1" vertex="1">
          <mxGeometry x="1080" y="320" width="130" height="30" as="geometry" />
        </mxCell>
        <mxCell id="oY1Nen4sBYmkMd0QGpDK-39" style="edgeStyle=orthogonalEdgeStyle;curved=1;orthogonalLoop=1;jettySize=auto;html=1;entryX=0;entryY=0.5;entryDx=0;entryDy=0;fillColor=#f8cecc;strokeColor=#b85450;strokeWidth=2;" parent="1" source="oY1Nen4sBYmkMd0QGpDK-16" target="oY1Nen4sBYmkMd0QGpDK-13" edge="1">
          <mxGeometry relative="1" as="geometry" />
        </mxCell>
        <mxCell id="oY1Nen4sBYmkMd0QGpDK-40" style="edgeStyle=orthogonalEdgeStyle;curved=1;orthogonalLoop=1;jettySize=auto;html=1;entryX=0;entryY=0.5;entryDx=0;entryDy=0;fillColor=#f8cecc;strokeColor=#b85450;strokeWidth=2;" parent="1" source="oY1Nen4sBYmkMd0QGpDK-16" target="oY1Nen4sBYmkMd0QGpDK-12" edge="1">
          <mxGeometry relative="1" as="geometry" />
        </mxCell>
        <mxCell id="42gZQ6lVNrVdXelR5NFE-3" style="edgeStyle=orthogonalEdgeStyle;curved=1;orthogonalLoop=1;jettySize=auto;html=1;exitX=1;exitY=0.5;exitDx=0;exitDy=0;entryX=0.554;entryY=1.067;entryDx=0;entryDy=0;entryPerimeter=0;fontSize=11;strokeWidth=2;fillColor=#f8cecc;strokeColor=#b85450;" parent="1" source="oY1Nen4sBYmkMd0QGpDK-16" target="42gZQ6lVNrVdXelR5NFE-2" edge="1">
          <mxGeometry relative="1" as="geometry" />
        </mxCell>
        <mxCell id="oY1Nen4sBYmkMd0QGpDK-16" value="outboundlistener" style="rounded=1;whiteSpace=wrap;html=1;fillColor=#f8cecc;strokeColor=#b85450;" parent="1" vertex="1">
          <mxGeometry x="1080" y="225" width="130" height="30" as="geometry" />
        </mxCell>
        <mxCell id="oY1Nen4sBYmkMd0QGpDK-17" style="edgeStyle=orthogonalEdgeStyle;curved=1;orthogonalLoop=1;jettySize=auto;html=1;entryX=0;entryY=0.5;entryDx=0;entryDy=0;fillColor=#dae8fc;strokeColor=#6c8ebf;strokeWidth=3;dashed=1;" parent="1" source="oY1Nen4sBYmkMd0QGpDK-18" target="oY1Nen4sBYmkMd0QGpDK-19" edge="1">
          <mxGeometry relative="1" as="geometry" />
        </mxCell>
        <mxCell id="oY1Nen4sBYmkMd0QGpDK-18" value="inboundcluster" style="rounded=1;whiteSpace=wrap;html=1;fillColor=#dae8fc;strokeColor=#6c8ebf;" parent="1" vertex="1">
          <mxGeometry x="1290" y="320" width="130" height="30" as="geometry" />
        </mxCell>
        <mxCell id="oY1Nen4sBYmkMd0QGpDK-53" style="edgeStyle=orthogonalEdgeStyle;curved=1;orthogonalLoop=1;jettySize=auto;html=1;exitX=0;exitY=0.75;exitDx=0;exitDy=0;entryX=0.908;entryY=0.35;entryDx=0;entryDy=0;entryPerimeter=0;dashed=1;fontSize=11;strokeWidth=3;fillColor=#f8cecc;strokeColor=#b85450;" parent="1" source="oY1Nen4sBYmkMd0QGpDK-19" target="oY1Nen4sBYmkMd0QGpDK-42" edge="1">
          <mxGeometry relative="1" as="geometry" />
        </mxCell>
        <mxCell id="oY1Nen4sBYmkMd0QGpDK-19" value="business A" style="rounded=1;whiteSpace=wrap;html=1;fillColor=#ffe6cc;strokeColor=#d79b00;" parent="1" vertex="1">
          <mxGeometry x="1480" y="115" width="200" height="250" as="geometry" />
        </mxCell>
        <mxCell id="oY1Nen4sBYmkMd0QGpDK-45" style="edgeStyle=orthogonalEdgeStyle;curved=1;orthogonalLoop=1;jettySize=auto;html=1;exitX=0.4;exitY=0.1;exitDx=0;exitDy=0;exitPerimeter=0;entryX=0;entryY=0.5;entryDx=0;entryDy=0;fontSize=11;fillColor=#dae8fc;strokeColor=#6c8ebf;dashed=1;strokeWidth=4;" parent="1" source="oY1Nen4sBYmkMd0QGpDK-42" target="oY1Nen4sBYmkMd0QGpDK-15" edge="1">
          <mxGeometry relative="1" as="geometry">
            <Array as="points">
              <mxPoint x="1369" y="415" />
              <mxPoint x="1060" y="415" />
              <mxPoint x="1060" y="335" />
            </Array>
          </mxGeometry>
        </mxCell>
        <mxCell id="oY1Nen4sBYmkMd0QGpDK-46" value="inbound" style="edgeLabel;html=1;align=center;verticalAlign=middle;resizable=0;points=[];fontSize=11;" parent="oY1Nen4sBYmkMd0QGpDK-45" vertex="1" connectable="0">
          <mxGeometry x="-0.0552" y="-6" relative="1" as="geometry">
            <mxPoint as="offset" />
          </mxGeometry>
        </mxCell>
        <mxCell id="oY1Nen4sBYmkMd0QGpDK-47" style="edgeStyle=orthogonalEdgeStyle;curved=1;orthogonalLoop=1;jettySize=auto;html=1;exitX=0.16;exitY=0.55;exitDx=0;exitDy=0;exitPerimeter=0;entryX=0;entryY=0.5;entryDx=0;entryDy=0;fontSize=11;fillColor=#f8cecc;strokeColor=#b85450;dashed=1;strokeWidth=4;" parent="1" source="oY1Nen4sBYmkMd0QGpDK-42" target="oY1Nen4sBYmkMd0QGpDK-16" edge="1">
          <mxGeometry relative="1" as="geometry">
            <Array as="points">
              <mxPoint x="1307" y="475" />
              <mxPoint x="1030" y="475" />
              <mxPoint x="1030" y="240" />
            </Array>
          </mxGeometry>
        </mxCell>
        <mxCell id="oY1Nen4sBYmkMd0QGpDK-48" value="outbound" style="edgeLabel;html=1;align=center;verticalAlign=middle;resizable=0;points=[];fontSize=11;" parent="oY1Nen4sBYmkMd0QGpDK-47" vertex="1" connectable="0">
          <mxGeometry x="-0.3747" y="2" relative="1" as="geometry">
            <mxPoint as="offset" />
          </mxGeometry>
        </mxCell>
        <mxCell id="oY1Nen4sBYmkMd0QGpDK-42" value="&lt;font style=&quot;font-size: 24px&quot;&gt;iptables&lt;/font&gt;" style="ellipse;shape=cloud;whiteSpace=wrap;html=1;dashed=1;strokeWidth=3;fillColor=#e1d5e7;strokeColor=#9673a6;" parent="1" vertex="1">
          <mxGeometry x="1265" y="415" width="260" height="80" as="geometry" />
        </mxCell>
        <mxCell id="oY1Nen4sBYmkMd0QGpDK-49" value="Sidecar" style="text;html=1;strokeColor=none;fillColor=none;align=center;verticalAlign=middle;whiteSpace=wrap;rounded=0;dashed=1;fontSize=11;" parent="1" vertex="1">
          <mxGeometry x="1150" y="115" width="60" height="30" as="geometry" />
        </mxCell>
        <mxCell id="oY1Nen4sBYmkMd0QGpDK-55" value="&lt;font style=&quot;font-size: 24px&quot;&gt;output&lt;/font&gt;" style="ellipse;shape=cloud;whiteSpace=wrap;html=1;dashed=1;strokeWidth=3;fillColor=#f8cecc;strokeColor=#b85450;" parent="1" vertex="1">
          <mxGeometry x="1245" y="5" width="260" height="80" as="geometry" />
        </mxCell>
        <mxCell id="oY1Nen4sBYmkMd0QGpDK-59" style="edgeStyle=orthogonalEdgeStyle;curved=1;orthogonalLoop=1;jettySize=auto;html=1;exitX=0.4;exitY=0.1;exitDx=0;exitDy=0;exitPerimeter=0;entryX=0.519;entryY=0.875;entryDx=0;entryDy=0;entryPerimeter=0;dashed=1;fontSize=11;strokeWidth=3;fillColor=#dae8fc;strokeColor=#6c8ebf;" parent="1" source="oY1Nen4sBYmkMd0QGpDK-58" target="oY1Nen4sBYmkMd0QGpDK-42" edge="1">
          <mxGeometry relative="1" as="geometry" />
        </mxCell>
        <mxCell id="oY1Nen4sBYmkMd0QGpDK-58" value="&lt;span style=&quot;font-size: 24px&quot;&gt;input&lt;/span&gt;" style="ellipse;shape=cloud;whiteSpace=wrap;html=1;dashed=1;strokeWidth=3;fillColor=#dae8fc;strokeColor=#6c8ebf;" parent="1" vertex="1">
          <mxGeometry x="1265" y="510" width="260" height="80" as="geometry" />
        </mxCell>
        <mxCell id="42gZQ6lVNrVdXelR5NFE-60" style="edgeStyle=orthogonalEdgeStyle;curved=1;orthogonalLoop=1;jettySize=auto;html=1;exitX=1;exitY=0.5;exitDx=0;exitDy=0;entryX=0.681;entryY=0.896;entryDx=0;entryDy=0;entryPerimeter=0;fontSize=11;strokeWidth=3;dashed=1;fillColor=#f8cecc;strokeColor=#b85450;" parent="1" source="42gZQ6lVNrVdXelR5NFE-1" target="oY1Nen4sBYmkMd0QGpDK-55" edge="1">
          <mxGeometry relative="1" as="geometry" />
        </mxCell>
        <mxCell id="42gZQ6lVNrVdXelR5NFE-1" value="business B cluster" style="rounded=1;whiteSpace=wrap;html=1;fillColor=#f8cecc;strokeColor=#b85450;" parent="1" vertex="1">
          <mxGeometry x="1290" y="145" width="130" height="30" as="geometry" />
        </mxCell>
        <mxCell id="42gZQ6lVNrVdXelR5NFE-4" style="edgeStyle=orthogonalEdgeStyle;curved=1;orthogonalLoop=1;jettySize=auto;html=1;exitX=1;exitY=0.5;exitDx=0;exitDy=0;entryX=0;entryY=0.5;entryDx=0;entryDy=0;fontSize=11;strokeWidth=2;fillColor=#f8cecc;strokeColor=#b85450;" parent="1" source="42gZQ6lVNrVdXelR5NFE-2" target="42gZQ6lVNrVdXelR5NFE-1" edge="1">
          <mxGeometry relative="1" as="geometry" />
        </mxCell>
        <mxCell id="42gZQ6lVNrVdXelR5NFE-2" value="business B listener" style="rounded=1;whiteSpace=wrap;html=1;fillColor=#f8cecc;strokeColor=#b85450;" parent="1" vertex="1">
          <mxGeometry x="1080" y="145" width="130" height="30" as="geometry" />
        </mxCell>
        <mxCell id="42gZQ6lVNrVdXelR5NFE-31" value="" style="rounded=0;whiteSpace=wrap;html=1;dashed=1;strokeWidth=4;strokeColor=#333333;" parent="1" vertex="1">
          <mxGeometry x="49" y="45" width="730" height="490" as="geometry" />
        </mxCell>
        <mxCell id="42gZQ6lVNrVdXelR5NFE-32" value="" style="rounded=1;whiteSpace=wrap;html=1;fillColor=#ffe6cc;strokeColor=#d79b00;" parent="1" vertex="1">
          <mxGeometry x="179" y="115" width="210" height="270" as="geometry" />
        </mxCell>
        <mxCell id="42gZQ6lVNrVdXelR5NFE-33" value="blackholecluster" style="rounded=1;whiteSpace=wrap;html=1;fillColor=#bac8d3;strokeColor=#23445d;" parent="1" vertex="1">
          <mxGeometry x="329" y="235" width="130" height="30" as="geometry" />
        </mxCell>
        <mxCell id="42gZQ6lVNrVdXelR5NFE-34" style="edgeStyle=orthogonalEdgeStyle;curved=1;orthogonalLoop=1;jettySize=auto;html=1;exitX=1;exitY=0.25;exitDx=0;exitDy=0;entryX=0.8;entryY=0.8;entryDx=0;entryDy=0;entryPerimeter=0;dashed=1;fontSize=11;strokeWidth=3;fillColor=#f8cecc;strokeColor=#b85450;" parent="1" source="42gZQ6lVNrVdXelR5NFE-35" target="42gZQ6lVNrVdXelR5NFE-52" edge="1">
          <mxGeometry relative="1" as="geometry" />
        </mxCell>
        <mxCell id="42gZQ6lVNrVdXelR5NFE-35" value="passthroughcluster" style="rounded=1;whiteSpace=wrap;html=1;fillColor=#f8cecc;strokeColor=#b85450;" parent="1" vertex="1">
          <mxGeometry x="329" y="195" width="130" height="30" as="geometry" />
        </mxCell>
        <mxCell id="42gZQ6lVNrVdXelR5NFE-36" style="edgeStyle=orthogonalEdgeStyle;orthogonalLoop=1;jettySize=auto;html=1;entryX=0;entryY=0.5;entryDx=0;entryDy=0;curved=1;fillColor=#dae8fc;strokeColor=#6c8ebf;strokeWidth=3;" parent="1" source="42gZQ6lVNrVdXelR5NFE-37" target="42gZQ6lVNrVdXelR5NFE-43" edge="1">
          <mxGeometry relative="1" as="geometry" />
        </mxCell>
        <mxCell id="42gZQ6lVNrVdXelR5NFE-37" value="inboundlistener" style="rounded=1;whiteSpace=wrap;html=1;fillColor=#dae8fc;strokeColor=#6c8ebf;" parent="1" vertex="1">
          <mxGeometry x="119" y="320" width="130" height="30" as="geometry" />
        </mxCell>
        <mxCell id="42gZQ6lVNrVdXelR5NFE-38" style="edgeStyle=orthogonalEdgeStyle;curved=1;orthogonalLoop=1;jettySize=auto;html=1;entryX=0;entryY=0.5;entryDx=0;entryDy=0;fillColor=#f8cecc;strokeColor=#b85450;strokeWidth=2;" parent="1" source="42gZQ6lVNrVdXelR5NFE-41" target="42gZQ6lVNrVdXelR5NFE-35" edge="1">
          <mxGeometry relative="1" as="geometry" />
        </mxCell>
        <mxCell id="42gZQ6lVNrVdXelR5NFE-39" style="edgeStyle=orthogonalEdgeStyle;curved=1;orthogonalLoop=1;jettySize=auto;html=1;entryX=0;entryY=0.5;entryDx=0;entryDy=0;fillColor=#f8cecc;strokeColor=#b85450;strokeWidth=2;" parent="1" source="42gZQ6lVNrVdXelR5NFE-41" target="42gZQ6lVNrVdXelR5NFE-33" edge="1">
          <mxGeometry relative="1" as="geometry" />
        </mxCell>
        <mxCell id="42gZQ6lVNrVdXelR5NFE-40" style="edgeStyle=orthogonalEdgeStyle;curved=1;orthogonalLoop=1;jettySize=auto;html=1;exitX=1;exitY=0.5;exitDx=0;exitDy=0;entryX=0.554;entryY=1.067;entryDx=0;entryDy=0;entryPerimeter=0;fontSize=11;strokeWidth=2;fillColor=#f8cecc;strokeColor=#b85450;" parent="1" source="42gZQ6lVNrVdXelR5NFE-41" target="42gZQ6lVNrVdXelR5NFE-57" edge="1">
          <mxGeometry relative="1" as="geometry" />
        </mxCell>
        <mxCell id="42gZQ6lVNrVdXelR5NFE-41" value="outboundlistener" style="rounded=1;whiteSpace=wrap;html=1;fillColor=#f8cecc;strokeColor=#b85450;" parent="1" vertex="1">
          <mxGeometry x="119" y="225" width="130" height="30" as="geometry" />
        </mxCell>
        <mxCell id="42gZQ6lVNrVdXelR5NFE-42" style="edgeStyle=orthogonalEdgeStyle;curved=1;orthogonalLoop=1;jettySize=auto;html=1;entryX=0;entryY=0.5;entryDx=0;entryDy=0;fillColor=#dae8fc;strokeColor=#6c8ebf;strokeWidth=3;dashed=1;" parent="1" source="42gZQ6lVNrVdXelR5NFE-43" target="42gZQ6lVNrVdXelR5NFE-45" edge="1">
          <mxGeometry relative="1" as="geometry" />
        </mxCell>
        <mxCell id="42gZQ6lVNrVdXelR5NFE-43" value="inboundcluster" style="rounded=1;whiteSpace=wrap;html=1;fillColor=#dae8fc;strokeColor=#6c8ebf;" parent="1" vertex="1">
          <mxGeometry x="329" y="320" width="130" height="30" as="geometry" />
        </mxCell>
        <mxCell id="42gZQ6lVNrVdXelR5NFE-44" style="edgeStyle=orthogonalEdgeStyle;curved=1;orthogonalLoop=1;jettySize=auto;html=1;exitX=0;exitY=0.75;exitDx=0;exitDy=0;entryX=0.908;entryY=0.35;entryDx=0;entryDy=0;entryPerimeter=0;dashed=1;fontSize=11;strokeWidth=3;fillColor=#f8cecc;strokeColor=#b85450;" parent="1" source="42gZQ6lVNrVdXelR5NFE-45" target="42gZQ6lVNrVdXelR5NFE-50" edge="1">
          <mxGeometry relative="1" as="geometry" />
        </mxCell>
        <mxCell id="42gZQ6lVNrVdXelR5NFE-45" value="business B" style="rounded=1;whiteSpace=wrap;html=1;fillColor=#ffe6cc;strokeColor=#d79b00;" parent="1" vertex="1">
          <mxGeometry x="519" y="115" width="200" height="250" as="geometry" />
        </mxCell>
        <mxCell id="42gZQ6lVNrVdXelR5NFE-46" style="edgeStyle=orthogonalEdgeStyle;curved=1;orthogonalLoop=1;jettySize=auto;html=1;exitX=0.4;exitY=0.1;exitDx=0;exitDy=0;exitPerimeter=0;entryX=0;entryY=0.5;entryDx=0;entryDy=0;fontSize=11;fillColor=#dae8fc;strokeColor=#6c8ebf;dashed=1;strokeWidth=4;" parent="1" source="42gZQ6lVNrVdXelR5NFE-50" target="42gZQ6lVNrVdXelR5NFE-37" edge="1">
          <mxGeometry relative="1" as="geometry">
            <Array as="points">
              <mxPoint x="408" y="415" />
              <mxPoint x="99" y="415" />
              <mxPoint x="99" y="335" />
            </Array>
          </mxGeometry>
        </mxCell>
        <mxCell id="42gZQ6lVNrVdXelR5NFE-47" value="inbound" style="edgeLabel;html=1;align=center;verticalAlign=middle;resizable=0;points=[];fontSize=11;" parent="42gZQ6lVNrVdXelR5NFE-46" vertex="1" connectable="0">
          <mxGeometry x="-0.0552" y="-6" relative="1" as="geometry">
            <mxPoint as="offset" />
          </mxGeometry>
        </mxCell>
        <mxCell id="42gZQ6lVNrVdXelR5NFE-48" style="edgeStyle=orthogonalEdgeStyle;curved=1;orthogonalLoop=1;jettySize=auto;html=1;exitX=0.16;exitY=0.55;exitDx=0;exitDy=0;exitPerimeter=0;entryX=0;entryY=0.5;entryDx=0;entryDy=0;fontSize=11;fillColor=#f8cecc;strokeColor=#b85450;dashed=1;strokeWidth=4;" parent="1" source="42gZQ6lVNrVdXelR5NFE-50" target="42gZQ6lVNrVdXelR5NFE-41" edge="1">
          <mxGeometry relative="1" as="geometry">
            <Array as="points">
              <mxPoint x="346" y="475" />
              <mxPoint x="69" y="475" />
              <mxPoint x="69" y="240" />
            </Array>
          </mxGeometry>
        </mxCell>
        <mxCell id="42gZQ6lVNrVdXelR5NFE-49" value="outbound" style="edgeLabel;html=1;align=center;verticalAlign=middle;resizable=0;points=[];fontSize=11;" parent="42gZQ6lVNrVdXelR5NFE-48" vertex="1" connectable="0">
          <mxGeometry x="-0.3747" y="2" relative="1" as="geometry">
            <mxPoint as="offset" />
          </mxGeometry>
        </mxCell>
        <mxCell id="42gZQ6lVNrVdXelR5NFE-50" value="&lt;font style=&quot;font-size: 24px&quot;&gt;iptables&lt;/font&gt;" style="ellipse;shape=cloud;whiteSpace=wrap;html=1;dashed=1;strokeWidth=3;fillColor=#e1d5e7;strokeColor=#9673a6;" parent="1" vertex="1">
          <mxGeometry x="304" y="415" width="260" height="80" as="geometry" />
        </mxCell>
        <mxCell id="42gZQ6lVNrVdXelR5NFE-51" value="Sidecar" style="text;html=1;strokeColor=none;fillColor=none;align=center;verticalAlign=middle;whiteSpace=wrap;rounded=0;dashed=1;fontSize=11;" parent="1" vertex="1">
          <mxGeometry x="189" y="115" width="60" height="30" as="geometry" />
        </mxCell>
        <mxCell id="42gZQ6lVNrVdXelR5NFE-52" value="&lt;font style=&quot;font-size: 24px&quot;&gt;output&lt;/font&gt;" style="ellipse;shape=cloud;whiteSpace=wrap;html=1;dashed=1;strokeWidth=3;fillColor=#f8cecc;strokeColor=#b85450;" parent="1" vertex="1">
          <mxGeometry x="284" y="5" width="260" height="80" as="geometry" />
        </mxCell>
        <mxCell id="42gZQ6lVNrVdXelR5NFE-53" style="edgeStyle=orthogonalEdgeStyle;curved=1;orthogonalLoop=1;jettySize=auto;html=1;exitX=0.4;exitY=0.1;exitDx=0;exitDy=0;exitPerimeter=0;entryX=0.519;entryY=0.875;entryDx=0;entryDy=0;entryPerimeter=0;dashed=1;fontSize=11;strokeWidth=3;fillColor=#dae8fc;strokeColor=#6c8ebf;" parent="1" source="42gZQ6lVNrVdXelR5NFE-54" target="42gZQ6lVNrVdXelR5NFE-50" edge="1">
          <mxGeometry relative="1" as="geometry" />
        </mxCell>
        <mxCell id="42gZQ6lVNrVdXelR5NFE-54" value="&lt;span style=&quot;font-size: 24px&quot;&gt;input&lt;/span&gt;" style="ellipse;shape=cloud;whiteSpace=wrap;html=1;dashed=1;strokeWidth=3;fillColor=#dae8fc;strokeColor=#6c8ebf;" parent="1" vertex="1">
          <mxGeometry x="304" y="510" width="260" height="80" as="geometry" />
        </mxCell>
        <mxCell id="42gZQ6lVNrVdXelR5NFE-61" style="edgeStyle=orthogonalEdgeStyle;curved=1;orthogonalLoop=1;jettySize=auto;html=1;exitX=1;exitY=0.5;exitDx=0;exitDy=0;dashed=1;fontSize=11;strokeWidth=3;fillColor=#f8cecc;strokeColor=#b85450;" parent="1" source="42gZQ6lVNrVdXelR5NFE-55" target="42gZQ6lVNrVdXelR5NFE-52" edge="1">
          <mxGeometry relative="1" as="geometry" />
        </mxCell>
        <mxCell id="42gZQ6lVNrVdXelR5NFE-55" value="business A cluster" style="rounded=1;whiteSpace=wrap;html=1;fillColor=#f8cecc;strokeColor=#b85450;" parent="1" vertex="1">
          <mxGeometry x="329" y="145" width="130" height="30" as="geometry" />
        </mxCell>
        <mxCell id="42gZQ6lVNrVdXelR5NFE-56" style="edgeStyle=orthogonalEdgeStyle;curved=1;orthogonalLoop=1;jettySize=auto;html=1;exitX=1;exitY=0.5;exitDx=0;exitDy=0;entryX=0;entryY=0.5;entryDx=0;entryDy=0;fontSize=11;strokeWidth=2;fillColor=#f8cecc;strokeColor=#b85450;" parent="1" source="42gZQ6lVNrVdXelR5NFE-57" target="42gZQ6lVNrVdXelR5NFE-55" edge="1">
          <mxGeometry relative="1" as="geometry" />
        </mxCell>
        <mxCell id="42gZQ6lVNrVdXelR5NFE-57" value="business A listener" style="rounded=1;whiteSpace=wrap;html=1;fillColor=#f8cecc;strokeColor=#b85450;" parent="1" vertex="1">
          <mxGeometry x="119" y="145" width="130" height="30" as="geometry" />
        </mxCell>
        <mxCell id="42gZQ6lVNrVdXelR5NFE-58" value="控制面发现B服务注册时下发" style="shape=callout;whiteSpace=wrap;html=1;perimeter=calloutPerimeter;fontSize=11;strokeColor=#82b366;strokeWidth=4;fillColor=#d5e8d4;" parent="1" vertex="1">
          <mxGeometry x="1060" y="55" width="120" height="80" as="geometry" />
        </mxCell>
        <mxCell id="42gZQ6lVNrVdXelR5NFE-59" value="" style="rounded=0;whiteSpace=wrap;html=1;fontSize=11;strokeColor=#333333;strokeWidth=2;fillColor=none;dashed=1;" parent="1" vertex="1">
          <mxGeometry x="1070" y="135" width="360" height="50" as="geometry" />
        </mxCell>
        <mxCell id="42gZQ6lVNrVdXelR5NFE-62" value="" style="rounded=0;whiteSpace=wrap;html=1;dashed=1;fontSize=11;strokeColor=#333333;strokeWidth=2;fillColor=none;" parent="1" vertex="1">
          <mxGeometry x="110" y="195" width="370" height="180" as="geometry" />
        </mxCell>
        <mxCell id="42gZQ6lVNrVdXelR5NFE-63" value="服务初始化部分" style="shape=callout;whiteSpace=wrap;html=1;perimeter=calloutPerimeter;dashed=1;fontSize=11;strokeColor=#82b366;strokeWidth=2;fillColor=#d5e8d4;direction=west;" parent="1" vertex="1">
          <mxGeometry x="69" y="375" width="120" height="80" as="geometry" />
        </mxCell>
        <mxCell id="42gZQ6lVNrVdXelR5NFE-64" value="" style="rounded=0;whiteSpace=wrap;html=1;dashed=1;fontSize=11;strokeColor=#333333;strokeWidth=2;fillColor=none;" parent="1" vertex="1">
          <mxGeometry x="110" y="115" width="370" height="65" as="geometry" />
        </mxCell>
        <mxCell id="42gZQ6lVNrVdXelR5NFE-65" value="初始化时发现网格内已有服务A时，对服务A进行发现" style="shape=callout;whiteSpace=wrap;html=1;perimeter=calloutPerimeter;dashed=1;fontSize=11;strokeColor=#82b366;strokeWidth=2;fillColor=#d5e8d4;" parent="1" vertex="1">
          <mxGeometry x="69" y="55" width="120" height="80" as="geometry" />
        </mxCell>
        <mxCell id="hYItOfej1nYIdVa6LfLt-1" value="" style="rounded=0;whiteSpace=wrap;html=1;dashed=1;strokeWidth=4;strokeColor=#333333;" parent="1" vertex="1">
          <mxGeometry x="90" y="787.5" width="730" height="490" as="geometry" />
        </mxCell>
        <mxCell id="hYItOfej1nYIdVa6LfLt-2" value="" style="rounded=1;whiteSpace=wrap;html=1;fillColor=#ffe6cc;strokeColor=#d79b00;" parent="1" vertex="1">
          <mxGeometry x="220" y="857.5" width="210" height="270" as="geometry" />
        </mxCell>
        <mxCell id="hYItOfej1nYIdVa6LfLt-3" value="blackholecluster" style="rounded=1;whiteSpace=wrap;html=1;fillColor=#bac8d3;strokeColor=#23445d;" parent="1" vertex="1">
          <mxGeometry x="370" y="977.5" width="130" height="30" as="geometry" />
        </mxCell>
        <mxCell id="hYItOfej1nYIdVa6LfLt-4" style="edgeStyle=orthogonalEdgeStyle;curved=1;orthogonalLoop=1;jettySize=auto;html=1;exitX=1;exitY=0.25;exitDx=0;exitDy=0;entryX=0.8;entryY=0.8;entryDx=0;entryDy=0;entryPerimeter=0;dashed=1;fontSize=11;strokeWidth=3;fillColor=#f8cecc;strokeColor=#b85450;" parent="1" source="hYItOfej1nYIdVa6LfLt-5" target="hYItOfej1nYIdVa6LfLt-22" edge="1">
          <mxGeometry relative="1" as="geometry" />
        </mxCell>
        <mxCell id="hYItOfej1nYIdVa6LfLt-5" value="passthroughcluster" style="rounded=1;whiteSpace=wrap;html=1;fillColor=#f8cecc;strokeColor=#b85450;" parent="1" vertex="1">
          <mxGeometry x="370" y="937.5" width="130" height="30" as="geometry" />
        </mxCell>
        <mxCell id="hYItOfej1nYIdVa6LfLt-6" style="edgeStyle=orthogonalEdgeStyle;orthogonalLoop=1;jettySize=auto;html=1;entryX=0;entryY=0.5;entryDx=0;entryDy=0;curved=1;fillColor=#dae8fc;strokeColor=#6c8ebf;strokeWidth=3;" parent="1" source="hYItOfej1nYIdVa6LfLt-7" target="hYItOfej1nYIdVa6LfLt-13" edge="1">
          <mxGeometry relative="1" as="geometry" />
        </mxCell>
        <mxCell id="hYItOfej1nYIdVa6LfLt-7" value="inboundlistener" style="rounded=1;whiteSpace=wrap;html=1;fillColor=#dae8fc;strokeColor=#6c8ebf;" parent="1" vertex="1">
          <mxGeometry x="160" y="1062.5" width="130" height="30" as="geometry" />
        </mxCell>
        <mxCell id="hYItOfej1nYIdVa6LfLt-8" style="edgeStyle=orthogonalEdgeStyle;curved=1;orthogonalLoop=1;jettySize=auto;html=1;entryX=0;entryY=0.5;entryDx=0;entryDy=0;fillColor=#f8cecc;strokeColor=#b85450;strokeWidth=2;" parent="1" source="hYItOfej1nYIdVa6LfLt-11" target="hYItOfej1nYIdVa6LfLt-5" edge="1">
          <mxGeometry relative="1" as="geometry" />
        </mxCell>
        <mxCell id="hYItOfej1nYIdVa6LfLt-9" style="edgeStyle=orthogonalEdgeStyle;curved=1;orthogonalLoop=1;jettySize=auto;html=1;entryX=0;entryY=0.5;entryDx=0;entryDy=0;fillColor=#f8cecc;strokeColor=#b85450;strokeWidth=2;" parent="1" source="hYItOfej1nYIdVa6LfLt-11" target="hYItOfej1nYIdVa6LfLt-3" edge="1">
          <mxGeometry relative="1" as="geometry" />
        </mxCell>
        <mxCell id="hYItOfej1nYIdVa6LfLt-10" style="edgeStyle=orthogonalEdgeStyle;curved=1;orthogonalLoop=1;jettySize=auto;html=1;exitX=1;exitY=0.5;exitDx=0;exitDy=0;entryX=0.554;entryY=1.067;entryDx=0;entryDy=0;entryPerimeter=0;fontSize=11;strokeWidth=2;fillColor=#f8cecc;strokeColor=#b85450;" parent="1" source="hYItOfej1nYIdVa6LfLt-11" target="hYItOfej1nYIdVa6LfLt-28" edge="1">
          <mxGeometry relative="1" as="geometry" />
        </mxCell>
        <mxCell id="hYItOfej1nYIdVa6LfLt-11" value="outboundlistener" style="rounded=1;whiteSpace=wrap;html=1;fillColor=#f8cecc;strokeColor=#b85450;" parent="1" vertex="1">
          <mxGeometry x="160" y="967.5" width="130" height="30" as="geometry" />
        </mxCell>
        <mxCell id="hYItOfej1nYIdVa6LfLt-12" style="edgeStyle=orthogonalEdgeStyle;curved=1;orthogonalLoop=1;jettySize=auto;html=1;entryX=0;entryY=0.5;entryDx=0;entryDy=0;fillColor=#dae8fc;strokeColor=#6c8ebf;strokeWidth=3;dashed=1;" parent="1" source="hYItOfej1nYIdVa6LfLt-13" target="hYItOfej1nYIdVa6LfLt-15" edge="1">
          <mxGeometry relative="1" as="geometry" />
        </mxCell>
        <mxCell id="hYItOfej1nYIdVa6LfLt-13" value="inboundcluster" style="rounded=1;whiteSpace=wrap;html=1;fillColor=#dae8fc;strokeColor=#6c8ebf;" parent="1" vertex="1">
          <mxGeometry x="370" y="1062.5" width="130" height="30" as="geometry" />
        </mxCell>
        <mxCell id="hYItOfej1nYIdVa6LfLt-14" style="edgeStyle=orthogonalEdgeStyle;curved=1;orthogonalLoop=1;jettySize=auto;html=1;exitX=0;exitY=0.75;exitDx=0;exitDy=0;entryX=0.908;entryY=0.35;entryDx=0;entryDy=0;entryPerimeter=0;dashed=1;fontSize=11;strokeWidth=3;fillColor=#f8cecc;strokeColor=#b85450;" parent="1" source="hYItOfej1nYIdVa6LfLt-15" target="hYItOfej1nYIdVa6LfLt-20" edge="1">
          <mxGeometry relative="1" as="geometry" />
        </mxCell>
        <mxCell id="hYItOfej1nYIdVa6LfLt-15" value="business B" style="rounded=1;whiteSpace=wrap;html=1;fillColor=#ffe6cc;strokeColor=#d79b00;" parent="1" vertex="1">
          <mxGeometry x="560" y="857.5" width="200" height="250" as="geometry" />
        </mxCell>
        <mxCell id="hYItOfej1nYIdVa6LfLt-16" style="edgeStyle=orthogonalEdgeStyle;curved=1;orthogonalLoop=1;jettySize=auto;html=1;exitX=0.4;exitY=0.1;exitDx=0;exitDy=0;exitPerimeter=0;entryX=0;entryY=0.5;entryDx=0;entryDy=0;fontSize=11;fillColor=#dae8fc;strokeColor=#6c8ebf;dashed=1;strokeWidth=4;" parent="1" source="hYItOfej1nYIdVa6LfLt-20" target="hYItOfej1nYIdVa6LfLt-7" edge="1">
          <mxGeometry relative="1" as="geometry">
            <Array as="points">
              <mxPoint x="449" y="1157.5" />
              <mxPoint x="140" y="1157.5" />
              <mxPoint x="140" y="1077.5" />
            </Array>
          </mxGeometry>
        </mxCell>
        <mxCell id="hYItOfej1nYIdVa6LfLt-17" value="inbound" style="edgeLabel;html=1;align=center;verticalAlign=middle;resizable=0;points=[];fontSize=11;" parent="hYItOfej1nYIdVa6LfLt-16" vertex="1" connectable="0">
          <mxGeometry x="-0.0552" y="-6" relative="1" as="geometry">
            <mxPoint as="offset" />
          </mxGeometry>
        </mxCell>
        <mxCell id="hYItOfej1nYIdVa6LfLt-18" style="edgeStyle=orthogonalEdgeStyle;curved=1;orthogonalLoop=1;jettySize=auto;html=1;exitX=0.16;exitY=0.55;exitDx=0;exitDy=0;exitPerimeter=0;entryX=0;entryY=0.5;entryDx=0;entryDy=0;fontSize=11;fillColor=#f8cecc;strokeColor=#b85450;dashed=1;strokeWidth=4;" parent="1" source="hYItOfej1nYIdVa6LfLt-20" target="hYItOfej1nYIdVa6LfLt-11" edge="1">
          <mxGeometry relative="1" as="geometry">
            <Array as="points">
              <mxPoint x="387" y="1217.5" />
              <mxPoint x="110" y="1217.5" />
              <mxPoint x="110" y="982.5" />
            </Array>
          </mxGeometry>
        </mxCell>
        <mxCell id="hYItOfej1nYIdVa6LfLt-19" value="outbound" style="edgeLabel;html=1;align=center;verticalAlign=middle;resizable=0;points=[];fontSize=11;" parent="hYItOfej1nYIdVa6LfLt-18" vertex="1" connectable="0">
          <mxGeometry x="-0.3747" y="2" relative="1" as="geometry">
            <mxPoint as="offset" />
          </mxGeometry>
        </mxCell>
        <mxCell id="hYItOfej1nYIdVa6LfLt-20" value="&lt;font style=&quot;font-size: 24px&quot;&gt;iptables&lt;/font&gt;" style="ellipse;shape=cloud;whiteSpace=wrap;html=1;dashed=1;strokeWidth=3;fillColor=#e1d5e7;strokeColor=#9673a6;" parent="1" vertex="1">
          <mxGeometry x="345" y="1157.5" width="260" height="80" as="geometry" />
        </mxCell>
        <mxCell id="hYItOfej1nYIdVa6LfLt-21" value="Sidecar" style="text;html=1;strokeColor=none;fillColor=none;align=center;verticalAlign=middle;whiteSpace=wrap;rounded=0;dashed=1;fontSize=11;" parent="1" vertex="1">
          <mxGeometry x="230" y="857.5" width="60" height="30" as="geometry" />
        </mxCell>
        <mxCell id="hYItOfej1nYIdVa6LfLt-22" value="&lt;font style=&quot;font-size: 24px&quot;&gt;output&lt;/font&gt;" style="ellipse;shape=cloud;whiteSpace=wrap;html=1;dashed=1;strokeWidth=3;fillColor=#f8cecc;strokeColor=#b85450;" parent="1" vertex="1">
          <mxGeometry x="325" y="747.5" width="260" height="80" as="geometry" />
        </mxCell>
        <mxCell id="hYItOfej1nYIdVa6LfLt-23" style="edgeStyle=orthogonalEdgeStyle;curved=1;orthogonalLoop=1;jettySize=auto;html=1;exitX=0.4;exitY=0.1;exitDx=0;exitDy=0;exitPerimeter=0;entryX=0.519;entryY=0.875;entryDx=0;entryDy=0;entryPerimeter=0;dashed=1;fontSize=11;strokeWidth=3;fillColor=#dae8fc;strokeColor=#6c8ebf;" parent="1" source="hYItOfej1nYIdVa6LfLt-24" target="hYItOfej1nYIdVa6LfLt-20" edge="1">
          <mxGeometry relative="1" as="geometry" />
        </mxCell>
        <mxCell id="hYItOfej1nYIdVa6LfLt-24" value="&lt;span style=&quot;font-size: 24px&quot;&gt;input&lt;/span&gt;" style="ellipse;shape=cloud;whiteSpace=wrap;html=1;dashed=1;strokeWidth=3;fillColor=#dae8fc;strokeColor=#6c8ebf;" parent="1" vertex="1">
          <mxGeometry x="345" y="1252.5" width="260" height="80" as="geometry" />
        </mxCell>
        <mxCell id="hYItOfej1nYIdVa6LfLt-25" style="edgeStyle=orthogonalEdgeStyle;curved=1;orthogonalLoop=1;jettySize=auto;html=1;exitX=1;exitY=0.5;exitDx=0;exitDy=0;dashed=1;fontSize=11;strokeWidth=3;fillColor=#f8cecc;strokeColor=#b85450;" parent="1" source="hYItOfej1nYIdVa6LfLt-26" target="hYItOfej1nYIdVa6LfLt-22" edge="1">
          <mxGeometry relative="1" as="geometry" />
        </mxCell>
        <mxCell id="hYItOfej1nYIdVa6LfLt-26" value="business A cluster" style="rounded=1;whiteSpace=wrap;html=1;fillColor=#000000;strokeColor=#b85450;shadow=0;sketch=1;glass=0;" parent="1" vertex="1">
          <mxGeometry x="370" y="887.5" width="130" height="30" as="geometry" />
        </mxCell>
        <mxCell id="hYItOfej1nYIdVa6LfLt-27" style="edgeStyle=orthogonalEdgeStyle;curved=1;orthogonalLoop=1;jettySize=auto;html=1;exitX=1;exitY=0.5;exitDx=0;exitDy=0;entryX=0;entryY=0.5;entryDx=0;entryDy=0;fontSize=11;strokeWidth=2;fillColor=#f8cecc;strokeColor=#b85450;" parent="1" source="hYItOfej1nYIdVa6LfLt-28" target="hYItOfej1nYIdVa6LfLt-26" edge="1">
          <mxGeometry relative="1" as="geometry" />
        </mxCell>
        <mxCell id="hYItOfej1nYIdVa6LfLt-28" value="business A listener" style="rounded=1;whiteSpace=wrap;html=1;fillColor=#f8cecc;strokeColor=#b85450;" parent="1" vertex="1">
          <mxGeometry x="160" y="887.5" width="130" height="30" as="geometry" />
        </mxCell>
        <mxCell id="hYItOfej1nYIdVa6LfLt-32" value="新实例endpoint加入到已经存在的cluster中" style="shape=callout;whiteSpace=wrap;html=1;perimeter=calloutPerimeter;dashed=1;fontSize=11;strokeColor=#82b366;strokeWidth=2;fillColor=#d5e8d4;size=30;position=0.3;" parent="1" vertex="1">
          <mxGeometry x="265" y="807.5" width="120" height="80" as="geometry" />
        </mxCell>
        <mxCell id="hYItOfej1nYIdVa6LfLt-33" value="" style="rounded=0;whiteSpace=wrap;html=1;dashed=1;fontSize=11;strokeColor=#333333;strokeWidth=2;fillColor=none;" parent="1" vertex="1">
          <mxGeometry x="350" y="867.5" width="181" height="60" as="geometry" />
        </mxCell>
        <mxCell id="hYItOfej1nYIdVa6LfLt-35" value="" style="rounded=0;whiteSpace=wrap;html=1;dashed=1;strokeWidth=4;strokeColor=#333333;" parent="1" vertex="1">
          <mxGeometry x="90" y="1540" width="730" height="490" as="geometry" />
        </mxCell>
        <mxCell id="hYItOfej1nYIdVa6LfLt-36" value="" style="rounded=1;whiteSpace=wrap;html=1;fillColor=#ffe6cc;strokeColor=#d79b00;" parent="1" vertex="1">
          <mxGeometry x="220" y="1610" width="210" height="270" as="geometry" />
        </mxCell>
        <mxCell id="hYItOfej1nYIdVa6LfLt-37" value="blackholecluster" style="rounded=1;whiteSpace=wrap;html=1;fillColor=#bac8d3;strokeColor=#23445d;" parent="1" vertex="1">
          <mxGeometry x="370" y="1770" width="130" height="30" as="geometry" />
        </mxCell>
        <mxCell id="hYItOfej1nYIdVa6LfLt-38" style="edgeStyle=orthogonalEdgeStyle;curved=1;orthogonalLoop=1;jettySize=auto;html=1;exitX=1;exitY=0.25;exitDx=0;exitDy=0;entryX=0.8;entryY=0.8;entryDx=0;entryDy=0;entryPerimeter=0;dashed=1;fontSize=11;strokeWidth=3;fillColor=#f8cecc;strokeColor=#b85450;" parent="1" source="hYItOfej1nYIdVa6LfLt-39" target="hYItOfej1nYIdVa6LfLt-56" edge="1">
          <mxGeometry relative="1" as="geometry" />
        </mxCell>
        <mxCell id="hYItOfej1nYIdVa6LfLt-39" value="passthroughcluster" style="rounded=1;whiteSpace=wrap;html=1;fillColor=#f8cecc;strokeColor=#b85450;" parent="1" vertex="1">
          <mxGeometry x="370" y="1730" width="130" height="30" as="geometry" />
        </mxCell>
        <mxCell id="hYItOfej1nYIdVa6LfLt-40" style="edgeStyle=orthogonalEdgeStyle;orthogonalLoop=1;jettySize=auto;html=1;entryX=0;entryY=0.5;entryDx=0;entryDy=0;curved=1;fillColor=#dae8fc;strokeColor=#6c8ebf;strokeWidth=3;" parent="1" source="hYItOfej1nYIdVa6LfLt-41" target="hYItOfej1nYIdVa6LfLt-47" edge="1">
          <mxGeometry relative="1" as="geometry" />
        </mxCell>
        <mxCell id="hYItOfej1nYIdVa6LfLt-41" value="inboundlistener" style="rounded=1;whiteSpace=wrap;html=1;fillColor=#dae8fc;strokeColor=#6c8ebf;" parent="1" vertex="1">
          <mxGeometry x="160" y="1815" width="130" height="30" as="geometry" />
        </mxCell>
        <mxCell id="hYItOfej1nYIdVa6LfLt-42" style="edgeStyle=orthogonalEdgeStyle;curved=1;orthogonalLoop=1;jettySize=auto;html=1;entryX=0;entryY=0.5;entryDx=0;entryDy=0;fillColor=#f8cecc;strokeColor=#b85450;strokeWidth=2;" parent="1" source="hYItOfej1nYIdVa6LfLt-45" target="hYItOfej1nYIdVa6LfLt-39" edge="1">
          <mxGeometry relative="1" as="geometry" />
        </mxCell>
        <mxCell id="hYItOfej1nYIdVa6LfLt-43" style="edgeStyle=orthogonalEdgeStyle;curved=1;orthogonalLoop=1;jettySize=auto;html=1;entryX=0;entryY=0.5;entryDx=0;entryDy=0;fillColor=#f8cecc;strokeColor=#b85450;strokeWidth=2;" parent="1" source="hYItOfej1nYIdVa6LfLt-45" target="hYItOfej1nYIdVa6LfLt-37" edge="1">
          <mxGeometry relative="1" as="geometry" />
        </mxCell>
        <mxCell id="hYItOfej1nYIdVa6LfLt-44" style="edgeStyle=orthogonalEdgeStyle;curved=1;orthogonalLoop=1;jettySize=auto;html=1;exitX=1;exitY=0.5;exitDx=0;exitDy=0;entryX=0.554;entryY=1.067;entryDx=0;entryDy=0;entryPerimeter=0;fontSize=11;strokeWidth=2;fillColor=#f8cecc;strokeColor=#b85450;" parent="1" source="hYItOfej1nYIdVa6LfLt-45" target="hYItOfej1nYIdVa6LfLt-62" edge="1">
          <mxGeometry relative="1" as="geometry" />
        </mxCell>
        <mxCell id="hYItOfej1nYIdVa6LfLt-45" value="outboundlistener" style="rounded=1;whiteSpace=wrap;html=1;fillColor=#f8cecc;strokeColor=#b85450;" parent="1" vertex="1">
          <mxGeometry x="166" y="1780" width="130" height="30" as="geometry" />
        </mxCell>
        <mxCell id="hYItOfej1nYIdVa6LfLt-46" style="edgeStyle=orthogonalEdgeStyle;curved=1;orthogonalLoop=1;jettySize=auto;html=1;entryX=0;entryY=0.5;entryDx=0;entryDy=0;fillColor=#dae8fc;strokeColor=#6c8ebf;strokeWidth=3;dashed=1;" parent="1" source="hYItOfej1nYIdVa6LfLt-47" target="hYItOfej1nYIdVa6LfLt-49" edge="1">
          <mxGeometry relative="1" as="geometry" />
        </mxCell>
        <mxCell id="hYItOfej1nYIdVa6LfLt-47" value="inboundcluster" style="rounded=1;whiteSpace=wrap;html=1;fillColor=#dae8fc;strokeColor=#6c8ebf;" parent="1" vertex="1">
          <mxGeometry x="370" y="1815" width="130" height="30" as="geometry" />
        </mxCell>
        <mxCell id="hYItOfej1nYIdVa6LfLt-48" style="edgeStyle=orthogonalEdgeStyle;curved=1;orthogonalLoop=1;jettySize=auto;html=1;exitX=0;exitY=0.75;exitDx=0;exitDy=0;entryX=0.908;entryY=0.35;entryDx=0;entryDy=0;entryPerimeter=0;dashed=1;fontSize=11;strokeWidth=3;fillColor=#f8cecc;strokeColor=#b85450;" parent="1" source="hYItOfej1nYIdVa6LfLt-49" target="hYItOfej1nYIdVa6LfLt-54" edge="1">
          <mxGeometry relative="1" as="geometry" />
        </mxCell>
        <mxCell id="hYItOfej1nYIdVa6LfLt-49" value="business B" style="rounded=1;whiteSpace=wrap;html=1;fillColor=#ffe6cc;strokeColor=#d79b00;" parent="1" vertex="1">
          <mxGeometry x="560" y="1610" width="200" height="250" as="geometry" />
        </mxCell>
        <mxCell id="hYItOfej1nYIdVa6LfLt-50" style="edgeStyle=orthogonalEdgeStyle;curved=1;orthogonalLoop=1;jettySize=auto;html=1;exitX=0.4;exitY=0.1;exitDx=0;exitDy=0;exitPerimeter=0;entryX=0;entryY=0.5;entryDx=0;entryDy=0;fontSize=11;fillColor=#dae8fc;strokeColor=#6c8ebf;dashed=1;strokeWidth=4;" parent="1" source="hYItOfej1nYIdVa6LfLt-54" target="hYItOfej1nYIdVa6LfLt-41" edge="1">
          <mxGeometry relative="1" as="geometry">
            <Array as="points">
              <mxPoint x="449" y="1910" />
              <mxPoint x="140" y="1910" />
              <mxPoint x="140" y="1830" />
            </Array>
          </mxGeometry>
        </mxCell>
        <mxCell id="hYItOfej1nYIdVa6LfLt-51" value="inbound" style="edgeLabel;html=1;align=center;verticalAlign=middle;resizable=0;points=[];fontSize=11;" parent="hYItOfej1nYIdVa6LfLt-50" vertex="1" connectable="0">
          <mxGeometry x="-0.0552" y="-6" relative="1" as="geometry">
            <mxPoint as="offset" />
          </mxGeometry>
        </mxCell>
        <mxCell id="hYItOfej1nYIdVa6LfLt-52" style="edgeStyle=orthogonalEdgeStyle;curved=1;orthogonalLoop=1;jettySize=auto;html=1;exitX=0.16;exitY=0.55;exitDx=0;exitDy=0;exitPerimeter=0;entryX=0;entryY=0.5;entryDx=0;entryDy=0;fontSize=11;fillColor=#f8cecc;strokeColor=#b85450;dashed=1;strokeWidth=4;" parent="1" source="hYItOfej1nYIdVa6LfLt-54" target="hYItOfej1nYIdVa6LfLt-45" edge="1">
          <mxGeometry relative="1" as="geometry">
            <Array as="points">
              <mxPoint x="387" y="1970" />
              <mxPoint x="110" y="1970" />
              <mxPoint x="110" y="1735" />
            </Array>
          </mxGeometry>
        </mxCell>
        <mxCell id="hYItOfej1nYIdVa6LfLt-53" value="outbound" style="edgeLabel;html=1;align=center;verticalAlign=middle;resizable=0;points=[];fontSize=11;" parent="hYItOfej1nYIdVa6LfLt-52" vertex="1" connectable="0">
          <mxGeometry x="-0.3747" y="2" relative="1" as="geometry">
            <mxPoint as="offset" />
          </mxGeometry>
        </mxCell>
        <mxCell id="hYItOfej1nYIdVa6LfLt-54" value="&lt;font style=&quot;font-size: 24px&quot;&gt;iptables&lt;/font&gt;" style="ellipse;shape=cloud;whiteSpace=wrap;html=1;dashed=1;strokeWidth=3;fillColor=#e1d5e7;strokeColor=#9673a6;" parent="1" vertex="1">
          <mxGeometry x="345" y="1910" width="260" height="80" as="geometry" />
        </mxCell>
        <mxCell id="hYItOfej1nYIdVa6LfLt-55" value="Sidecar" style="text;html=1;strokeColor=none;fillColor=none;align=center;verticalAlign=middle;whiteSpace=wrap;rounded=0;dashed=1;fontSize=11;" parent="1" vertex="1">
          <mxGeometry x="230" y="1610" width="60" height="30" as="geometry" />
        </mxCell>
        <mxCell id="hYItOfej1nYIdVa6LfLt-56" value="&lt;font style=&quot;font-size: 24px&quot;&gt;output&lt;/font&gt;" style="ellipse;shape=cloud;whiteSpace=wrap;html=1;dashed=1;strokeWidth=3;fillColor=#f8cecc;strokeColor=#b85450;" parent="1" vertex="1">
          <mxGeometry x="325" y="1500" width="260" height="80" as="geometry" />
        </mxCell>
        <mxCell id="hYItOfej1nYIdVa6LfLt-57" style="edgeStyle=orthogonalEdgeStyle;curved=1;orthogonalLoop=1;jettySize=auto;html=1;exitX=0.4;exitY=0.1;exitDx=0;exitDy=0;exitPerimeter=0;entryX=0.519;entryY=0.875;entryDx=0;entryDy=0;entryPerimeter=0;dashed=1;fontSize=11;strokeWidth=3;fillColor=#dae8fc;strokeColor=#6c8ebf;" parent="1" source="hYItOfej1nYIdVa6LfLt-58" target="hYItOfej1nYIdVa6LfLt-54" edge="1">
          <mxGeometry relative="1" as="geometry" />
        </mxCell>
        <mxCell id="hYItOfej1nYIdVa6LfLt-58" value="&lt;span style=&quot;font-size: 24px&quot;&gt;input&lt;/span&gt;" style="ellipse;shape=cloud;whiteSpace=wrap;html=1;dashed=1;strokeWidth=3;fillColor=#dae8fc;strokeColor=#6c8ebf;" parent="1" vertex="1">
          <mxGeometry x="345" y="2005" width="260" height="80" as="geometry" />
        </mxCell>
        <mxCell id="hYItOfej1nYIdVa6LfLt-59" style="edgeStyle=orthogonalEdgeStyle;curved=1;orthogonalLoop=1;jettySize=auto;html=1;exitX=1;exitY=0.5;exitDx=0;exitDy=0;dashed=1;fontSize=11;strokeWidth=3;fillColor=#f8cecc;strokeColor=#b85450;" parent="1" source="hYItOfej1nYIdVa6LfLt-60" target="hYItOfej1nYIdVa6LfLt-56" edge="1">
          <mxGeometry relative="1" as="geometry">
            <Array as="points">
              <mxPoint x="520" y="1705" />
              <mxPoint x="520" y="1600" />
              <mxPoint x="455" y="1600" />
            </Array>
          </mxGeometry>
        </mxCell>
        <mxCell id="hYItOfej1nYIdVa6LfLt-60" value="business A cluster" style="rounded=1;whiteSpace=wrap;html=1;fillColor=#f8cecc;strokeColor=#b85450;shadow=0;sketch=0;glass=0;" parent="1" vertex="1">
          <mxGeometry x="370" y="1690" width="130" height="30" as="geometry" />
        </mxCell>
        <mxCell id="hYItOfej1nYIdVa6LfLt-61" style="edgeStyle=orthogonalEdgeStyle;curved=1;orthogonalLoop=1;jettySize=auto;html=1;exitX=1;exitY=0.5;exitDx=0;exitDy=0;entryX=0;entryY=0.5;entryDx=0;entryDy=0;fontSize=11;strokeWidth=2;fillColor=#f8cecc;strokeColor=#b85450;" parent="1" source="hYItOfej1nYIdVa6LfLt-62" target="hYItOfej1nYIdVa6LfLt-60" edge="1">
          <mxGeometry relative="1" as="geometry" />
        </mxCell>
        <mxCell id="hYItOfej1nYIdVa6LfLt-62" value="business A listener" style="rounded=1;whiteSpace=wrap;html=1;fillColor=#f8cecc;strokeColor=#b85450;" parent="1" vertex="1">
          <mxGeometry x="160" y="1640" width="130" height="30" as="geometry" />
        </mxCell>
        <mxCell id="hYItOfej1nYIdVa6LfLt-63" value="&amp;nbsp;注册上游集合的过程本质是为envoy增加cluster逻辑拓扑" style="shape=callout;whiteSpace=wrap;html=1;perimeter=calloutPerimeter;dashed=1;fontSize=11;strokeColor=#82b366;strokeWidth=2;fillColor=#d5e8d4;size=30;position=0.3;" parent="1" vertex="1">
          <mxGeometry x="250" y="1535" width="120" height="80" as="geometry" />
        </mxCell>
        <mxCell id="hYItOfej1nYIdVa6LfLt-65" value="businessA- default cluster" style="rounded=1;whiteSpace=wrap;html=1;fillColor=#f8cecc;strokeColor=#b85450;shadow=0;sketch=0;glass=0;" parent="1" vertex="1">
          <mxGeometry x="370" y="1650" width="130" height="30" as="geometry" />
        </mxCell>
        <mxCell id="hYItOfej1nYIdVa6LfLt-66" value="businessA-v1 cluster" style="rounded=1;whiteSpace=wrap;html=1;fillColor=#f8cecc;strokeColor=#b85450;shadow=0;sketch=0;glass=0;" parent="1" vertex="1">
          <mxGeometry x="370" y="1615" width="130" height="30" as="geometry" />
        </mxCell>
        <mxCell id="hYItOfej1nYIdVa6LfLt-67" value="" style="rounded=0;whiteSpace=wrap;html=1;dashed=1;fontSize=11;strokeColor=#333333;strokeWidth=2;fillColor=none;" parent="1" vertex="1">
          <mxGeometry x="310" y="1605" width="201" height="85" as="geometry" />
        </mxCell>
        <mxCell id="hYItOfej1nYIdVa6LfLt-68" value="" style="rounded=0;whiteSpace=wrap;html=1;dashed=1;strokeWidth=4;strokeColor=#333333;" parent="1" vertex="1">
          <mxGeometry x="1000" y="1542.5" width="730" height="490" as="geometry" />
        </mxCell>
        <mxCell id="hYItOfej1nYIdVa6LfLt-69" value="" style="rounded=1;whiteSpace=wrap;html=1;fillColor=#ffe6cc;strokeColor=#d79b00;" parent="1" vertex="1">
          <mxGeometry x="1130" y="1612.5" width="210" height="270" as="geometry" />
        </mxCell>
        <mxCell id="hYItOfej1nYIdVa6LfLt-70" value="blackholecluster" style="rounded=1;whiteSpace=wrap;html=1;fillColor=#bac8d3;strokeColor=#23445d;" parent="1" vertex="1">
          <mxGeometry x="1280" y="1772.5" width="130" height="30" as="geometry" />
        </mxCell>
        <mxCell id="hYItOfej1nYIdVa6LfLt-71" style="edgeStyle=orthogonalEdgeStyle;curved=1;orthogonalLoop=1;jettySize=auto;html=1;exitX=1;exitY=0.25;exitDx=0;exitDy=0;entryX=0.8;entryY=0.8;entryDx=0;entryDy=0;entryPerimeter=0;dashed=1;fontSize=11;strokeWidth=3;fillColor=#f8cecc;strokeColor=#b85450;" parent="1" source="hYItOfej1nYIdVa6LfLt-72" target="hYItOfej1nYIdVa6LfLt-89" edge="1">
          <mxGeometry relative="1" as="geometry" />
        </mxCell>
        <mxCell id="hYItOfej1nYIdVa6LfLt-72" value="passthroughcluster" style="rounded=1;whiteSpace=wrap;html=1;fillColor=#f8cecc;strokeColor=#b85450;" parent="1" vertex="1">
          <mxGeometry x="1280" y="1732.5" width="130" height="30" as="geometry" />
        </mxCell>
        <mxCell id="hYItOfej1nYIdVa6LfLt-73" style="edgeStyle=orthogonalEdgeStyle;orthogonalLoop=1;jettySize=auto;html=1;entryX=0;entryY=0.5;entryDx=0;entryDy=0;curved=1;fillColor=#dae8fc;strokeColor=#6c8ebf;strokeWidth=3;" parent="1" source="hYItOfej1nYIdVa6LfLt-74" target="hYItOfej1nYIdVa6LfLt-80" edge="1">
          <mxGeometry relative="1" as="geometry" />
        </mxCell>
        <mxCell id="hYItOfej1nYIdVa6LfLt-74" value="inboundlistener" style="rounded=1;whiteSpace=wrap;html=1;fillColor=#dae8fc;strokeColor=#6c8ebf;" parent="1" vertex="1">
          <mxGeometry x="1070" y="1817.5" width="130" height="30" as="geometry" />
        </mxCell>
        <mxCell id="hYItOfej1nYIdVa6LfLt-75" style="edgeStyle=orthogonalEdgeStyle;curved=1;orthogonalLoop=1;jettySize=auto;html=1;entryX=0;entryY=0.5;entryDx=0;entryDy=0;fillColor=#f8cecc;strokeColor=#b85450;strokeWidth=2;" parent="1" source="hYItOfej1nYIdVa6LfLt-78" target="hYItOfej1nYIdVa6LfLt-72" edge="1">
          <mxGeometry relative="1" as="geometry" />
        </mxCell>
        <mxCell id="hYItOfej1nYIdVa6LfLt-76" style="edgeStyle=orthogonalEdgeStyle;curved=1;orthogonalLoop=1;jettySize=auto;html=1;entryX=0;entryY=0.5;entryDx=0;entryDy=0;fillColor=#f8cecc;strokeColor=#b85450;strokeWidth=2;" parent="1" source="hYItOfej1nYIdVa6LfLt-78" target="hYItOfej1nYIdVa6LfLt-70" edge="1">
          <mxGeometry relative="1" as="geometry" />
        </mxCell>
        <mxCell id="hYItOfej1nYIdVa6LfLt-77" style="edgeStyle=orthogonalEdgeStyle;curved=1;orthogonalLoop=1;jettySize=auto;html=1;exitX=1;exitY=0.5;exitDx=0;exitDy=0;entryX=0.554;entryY=1.067;entryDx=0;entryDy=0;entryPerimeter=0;fontSize=11;strokeWidth=2;fillColor=#f8cecc;strokeColor=#b85450;" parent="1" source="hYItOfej1nYIdVa6LfLt-78" target="hYItOfej1nYIdVa6LfLt-95" edge="1">
          <mxGeometry relative="1" as="geometry" />
        </mxCell>
        <mxCell id="hYItOfej1nYIdVa6LfLt-78" value="outboundlistener" style="rounded=1;whiteSpace=wrap;html=1;fillColor=#f8cecc;strokeColor=#b85450;" parent="1" vertex="1">
          <mxGeometry x="1076" y="1782.5" width="130" height="30" as="geometry" />
        </mxCell>
        <mxCell id="hYItOfej1nYIdVa6LfLt-79" style="edgeStyle=orthogonalEdgeStyle;curved=1;orthogonalLoop=1;jettySize=auto;html=1;entryX=0;entryY=0.5;entryDx=0;entryDy=0;fillColor=#dae8fc;strokeColor=#6c8ebf;strokeWidth=3;dashed=1;" parent="1" source="hYItOfej1nYIdVa6LfLt-80" target="hYItOfej1nYIdVa6LfLt-82" edge="1">
          <mxGeometry relative="1" as="geometry" />
        </mxCell>
        <mxCell id="hYItOfej1nYIdVa6LfLt-80" value="inboundcluster" style="rounded=1;whiteSpace=wrap;html=1;fillColor=#dae8fc;strokeColor=#6c8ebf;" parent="1" vertex="1">
          <mxGeometry x="1280" y="1817.5" width="130" height="30" as="geometry" />
        </mxCell>
        <mxCell id="hYItOfej1nYIdVa6LfLt-81" style="edgeStyle=orthogonalEdgeStyle;curved=1;orthogonalLoop=1;jettySize=auto;html=1;exitX=0;exitY=0.75;exitDx=0;exitDy=0;entryX=0.908;entryY=0.35;entryDx=0;entryDy=0;entryPerimeter=0;dashed=1;fontSize=11;strokeWidth=3;fillColor=#f8cecc;strokeColor=#b85450;" parent="1" source="hYItOfej1nYIdVa6LfLt-82" target="hYItOfej1nYIdVa6LfLt-87" edge="1">
          <mxGeometry relative="1" as="geometry" />
        </mxCell>
        <mxCell id="hYItOfej1nYIdVa6LfLt-82" value="business B" style="rounded=1;whiteSpace=wrap;html=1;fillColor=#ffe6cc;strokeColor=#d79b00;" parent="1" vertex="1">
          <mxGeometry x="1470" y="1612.5" width="200" height="250" as="geometry" />
        </mxCell>
        <mxCell id="hYItOfej1nYIdVa6LfLt-83" style="edgeStyle=orthogonalEdgeStyle;curved=1;orthogonalLoop=1;jettySize=auto;html=1;exitX=0.4;exitY=0.1;exitDx=0;exitDy=0;exitPerimeter=0;entryX=0;entryY=0.5;entryDx=0;entryDy=0;fontSize=11;fillColor=#dae8fc;strokeColor=#6c8ebf;dashed=1;strokeWidth=4;" parent="1" source="hYItOfej1nYIdVa6LfLt-87" target="hYItOfej1nYIdVa6LfLt-74" edge="1">
          <mxGeometry relative="1" as="geometry">
            <Array as="points">
              <mxPoint x="1359" y="1912.5" />
              <mxPoint x="1050" y="1912.5" />
              <mxPoint x="1050" y="1832.5" />
            </Array>
          </mxGeometry>
        </mxCell>
        <mxCell id="hYItOfej1nYIdVa6LfLt-84" value="inbound" style="edgeLabel;html=1;align=center;verticalAlign=middle;resizable=0;points=[];fontSize=11;" parent="hYItOfej1nYIdVa6LfLt-83" vertex="1" connectable="0">
          <mxGeometry x="-0.0552" y="-6" relative="1" as="geometry">
            <mxPoint as="offset" />
          </mxGeometry>
        </mxCell>
        <mxCell id="hYItOfej1nYIdVa6LfLt-85" style="edgeStyle=orthogonalEdgeStyle;curved=1;orthogonalLoop=1;jettySize=auto;html=1;exitX=0.16;exitY=0.55;exitDx=0;exitDy=0;exitPerimeter=0;entryX=0;entryY=0.5;entryDx=0;entryDy=0;fontSize=11;fillColor=#f8cecc;strokeColor=#b85450;dashed=1;strokeWidth=4;" parent="1" source="hYItOfej1nYIdVa6LfLt-87" target="hYItOfej1nYIdVa6LfLt-78" edge="1">
          <mxGeometry relative="1" as="geometry">
            <Array as="points">
              <mxPoint x="1297" y="1972.5" />
              <mxPoint x="1020" y="1972.5" />
              <mxPoint x="1020" y="1737.5" />
            </Array>
          </mxGeometry>
        </mxCell>
        <mxCell id="hYItOfej1nYIdVa6LfLt-86" value="outbound" style="edgeLabel;html=1;align=center;verticalAlign=middle;resizable=0;points=[];fontSize=11;" parent="hYItOfej1nYIdVa6LfLt-85" vertex="1" connectable="0">
          <mxGeometry x="-0.3747" y="2" relative="1" as="geometry">
            <mxPoint as="offset" />
          </mxGeometry>
        </mxCell>
        <mxCell id="hYItOfej1nYIdVa6LfLt-87" value="&lt;font style=&quot;font-size: 24px&quot;&gt;iptables&lt;/font&gt;" style="ellipse;shape=cloud;whiteSpace=wrap;html=1;dashed=1;strokeWidth=3;fillColor=#e1d5e7;strokeColor=#9673a6;" parent="1" vertex="1">
          <mxGeometry x="1255" y="1912.5" width="260" height="80" as="geometry" />
        </mxCell>
        <mxCell id="hYItOfej1nYIdVa6LfLt-88" value="Sidecar" style="text;html=1;strokeColor=none;fillColor=none;align=center;verticalAlign=middle;whiteSpace=wrap;rounded=0;dashed=1;fontSize=11;" parent="1" vertex="1">
          <mxGeometry x="1140" y="1612.5" width="60" height="30" as="geometry" />
        </mxCell>
        <mxCell id="hYItOfej1nYIdVa6LfLt-89" value="&lt;font style=&quot;font-size: 24px&quot;&gt;output&lt;/font&gt;" style="ellipse;shape=cloud;whiteSpace=wrap;html=1;dashed=1;strokeWidth=3;fillColor=#f8cecc;strokeColor=#b85450;" parent="1" vertex="1">
          <mxGeometry x="1235" y="1502.5" width="260" height="80" as="geometry" />
        </mxCell>
        <mxCell id="hYItOfej1nYIdVa6LfLt-90" style="edgeStyle=orthogonalEdgeStyle;curved=1;orthogonalLoop=1;jettySize=auto;html=1;exitX=0.4;exitY=0.1;exitDx=0;exitDy=0;exitPerimeter=0;entryX=0.519;entryY=0.875;entryDx=0;entryDy=0;entryPerimeter=0;dashed=1;fontSize=11;strokeWidth=3;fillColor=#dae8fc;strokeColor=#6c8ebf;" parent="1" source="hYItOfej1nYIdVa6LfLt-91" target="hYItOfej1nYIdVa6LfLt-87" edge="1">
          <mxGeometry relative="1" as="geometry" />
        </mxCell>
        <mxCell id="hYItOfej1nYIdVa6LfLt-91" value="&lt;span style=&quot;font-size: 24px&quot;&gt;input&lt;/span&gt;" style="ellipse;shape=cloud;whiteSpace=wrap;html=1;dashed=1;strokeWidth=3;fillColor=#dae8fc;strokeColor=#6c8ebf;" parent="1" vertex="1">
          <mxGeometry x="1255" y="2007.5" width="260" height="80" as="geometry" />
        </mxCell>
        <mxCell id="hYItOfej1nYIdVa6LfLt-92" style="edgeStyle=orthogonalEdgeStyle;curved=1;orthogonalLoop=1;jettySize=auto;html=1;exitX=1;exitY=0.5;exitDx=0;exitDy=0;dashed=1;fontSize=11;strokeWidth=3;fillColor=#f8cecc;strokeColor=#b85450;" parent="1" source="hYItOfej1nYIdVa6LfLt-93" target="hYItOfej1nYIdVa6LfLt-89" edge="1">
          <mxGeometry relative="1" as="geometry">
            <Array as="points">
              <mxPoint x="1430" y="1707.5" />
              <mxPoint x="1430" y="1602.5" />
              <mxPoint x="1365" y="1602.5" />
            </Array>
          </mxGeometry>
        </mxCell>
        <mxCell id="hYItOfej1nYIdVa6LfLt-93" value="business A cluster" style="rounded=1;whiteSpace=wrap;html=1;fillColor=#f8cecc;strokeColor=#b85450;shadow=0;sketch=0;glass=0;" parent="1" vertex="1">
          <mxGeometry x="1280" y="1692.5" width="130" height="30" as="geometry" />
        </mxCell>
        <mxCell id="hYItOfej1nYIdVa6LfLt-94" value="if Versionctl:v1" style="edgeStyle=orthogonalEdgeStyle;curved=1;orthogonalLoop=1;jettySize=auto;html=1;exitX=1;exitY=0.5;exitDx=0;exitDy=0;entryX=0;entryY=0.5;entryDx=0;entryDy=0;fontSize=11;strokeWidth=2;fillColor=#f8cecc;strokeColor=#b85450;" parent="1" source="hYItOfej1nYIdVa6LfLt-95" target="hYItOfej1nYIdVa6LfLt-98" edge="1">
          <mxGeometry relative="1" as="geometry" />
        </mxCell>
        <mxCell id="hYItOfej1nYIdVa6LfLt-100" value="default" style="edgeStyle=orthogonalEdgeStyle;orthogonalLoop=1;jettySize=auto;html=1;exitX=1;exitY=0.75;exitDx=0;exitDy=0;entryX=0;entryY=0.5;entryDx=0;entryDy=0;fillColor=#f8cecc;strokeColor=#b85450;curved=1;strokeWidth=2;" parent="1" source="hYItOfej1nYIdVa6LfLt-95" target="hYItOfej1nYIdVa6LfLt-97" edge="1">
          <mxGeometry relative="1" as="geometry" />
        </mxCell>
        <mxCell id="hYItOfej1nYIdVa6LfLt-95" value="business A listener" style="rounded=1;whiteSpace=wrap;html=1;fillColor=#f8cecc;strokeColor=#b85450;" parent="1" vertex="1">
          <mxGeometry x="1070" y="1642.5" width="130" height="30" as="geometry" />
        </mxCell>
        <mxCell id="hYItOfej1nYIdVa6LfLt-96" value="RDS通过virtual service指向了新的上游集合" style="shape=callout;whiteSpace=wrap;html=1;perimeter=calloutPerimeter;dashed=1;fontSize=11;strokeColor=#82b366;strokeWidth=2;fillColor=#d5e8d4;size=30;position=0.3;" parent="1" vertex="1">
          <mxGeometry x="1076" y="1552.5" width="120" height="80" as="geometry" />
        </mxCell>
        <mxCell id="hYItOfej1nYIdVa6LfLt-97" value="businessA- default cluster" style="rounded=1;whiteSpace=wrap;html=1;fillColor=#f8cecc;strokeColor=#b85450;shadow=0;sketch=0;glass=0;" parent="1" vertex="1">
          <mxGeometry x="1280" y="1652.5" width="130" height="30" as="geometry" />
        </mxCell>
        <mxCell id="hYItOfej1nYIdVa6LfLt-98" value="businessA-v1 cluster" style="rounded=1;whiteSpace=wrap;html=1;fillColor=#f8cecc;strokeColor=#b85450;shadow=0;sketch=0;glass=0;" parent="1" vertex="1">
          <mxGeometry x="1280" y="1617.5" width="130" height="30" as="geometry" />
        </mxCell>
        <mxCell id="hYItOfej1nYIdVa6LfLt-101" value="" style="rounded=0;whiteSpace=wrap;html=1;dashed=1;fontSize=11;strokeColor=#333333;strokeWidth=2;fillColor=none;" parent="1" vertex="1">
          <mxGeometry x="1140" y="1617.5" width="201" height="85" as="geometry" />
        </mxCell>
        <mxCell id="07QtRGWR2-FWHr-63keU-1" value="" style="rounded=0;whiteSpace=wrap;html=1;dashed=1;strokeWidth=4;strokeColor=#333333;" vertex="1" parent="1">
          <mxGeometry x="49" y="-670" width="730" height="490" as="geometry" />
        </mxCell>
        <mxCell id="07QtRGWR2-FWHr-63keU-2" value="" style="rounded=1;whiteSpace=wrap;html=1;fillColor=#ffe6cc;strokeColor=#d79b00;" vertex="1" parent="1">
          <mxGeometry x="179" y="-600" width="210" height="270" as="geometry" />
        </mxCell>
        <mxCell id="07QtRGWR2-FWHr-63keU-3" value="blackholecluster" style="rounded=1;whiteSpace=wrap;html=1;fillColor=#bac8d3;strokeColor=#23445d;" vertex="1" parent="1">
          <mxGeometry x="329" y="-520" width="130" height="30" as="geometry" />
        </mxCell>
        <mxCell id="07QtRGWR2-FWHr-63keU-4" style="edgeStyle=orthogonalEdgeStyle;curved=1;orthogonalLoop=1;jettySize=auto;html=1;exitX=1;exitY=0.25;exitDx=0;exitDy=0;entryX=0.8;entryY=0.8;entryDx=0;entryDy=0;entryPerimeter=0;dashed=1;fontSize=11;strokeWidth=3;fillColor=#f8cecc;strokeColor=#b85450;" edge="1" parent="1" source="07QtRGWR2-FWHr-63keU-5" target="07QtRGWR2-FWHr-63keU-21">
          <mxGeometry relative="1" as="geometry" />
        </mxCell>
        <mxCell id="07QtRGWR2-FWHr-63keU-5" value="passthroughcluster" style="rounded=1;whiteSpace=wrap;html=1;fillColor=#f8cecc;strokeColor=#b85450;" vertex="1" parent="1">
          <mxGeometry x="329" y="-560" width="130" height="30" as="geometry" />
        </mxCell>
        <mxCell id="07QtRGWR2-FWHr-63keU-6" style="edgeStyle=orthogonalEdgeStyle;orthogonalLoop=1;jettySize=auto;html=1;entryX=0;entryY=0.5;entryDx=0;entryDy=0;curved=1;fillColor=#dae8fc;strokeColor=#6c8ebf;strokeWidth=3;" edge="1" parent="1" source="07QtRGWR2-FWHr-63keU-7" target="07QtRGWR2-FWHr-63keU-12">
          <mxGeometry relative="1" as="geometry" />
        </mxCell>
        <mxCell id="07QtRGWR2-FWHr-63keU-7" value="inboundlistener" style="rounded=1;whiteSpace=wrap;html=1;fillColor=#dae8fc;strokeColor=#6c8ebf;" vertex="1" parent="1">
          <mxGeometry x="119" y="-395" width="130" height="30" as="geometry" />
        </mxCell>
        <mxCell id="07QtRGWR2-FWHr-63keU-8" style="edgeStyle=orthogonalEdgeStyle;curved=1;orthogonalLoop=1;jettySize=auto;html=1;entryX=0;entryY=0.5;entryDx=0;entryDy=0;fillColor=#f8cecc;strokeColor=#b85450;strokeWidth=2;" edge="1" parent="1" source="07QtRGWR2-FWHr-63keU-10" target="07QtRGWR2-FWHr-63keU-5">
          <mxGeometry relative="1" as="geometry" />
        </mxCell>
        <mxCell id="07QtRGWR2-FWHr-63keU-9" style="edgeStyle=orthogonalEdgeStyle;curved=1;orthogonalLoop=1;jettySize=auto;html=1;entryX=0;entryY=0.5;entryDx=0;entryDy=0;fillColor=#f8cecc;strokeColor=#b85450;strokeWidth=2;" edge="1" parent="1" source="07QtRGWR2-FWHr-63keU-10" target="07QtRGWR2-FWHr-63keU-3">
          <mxGeometry relative="1" as="geometry" />
        </mxCell>
        <mxCell id="07QtRGWR2-FWHr-63keU-10" value="outboundlistener" style="rounded=1;whiteSpace=wrap;html=1;fillColor=#f8cecc;strokeColor=#b85450;" vertex="1" parent="1">
          <mxGeometry x="119" y="-490" width="130" height="30" as="geometry" />
        </mxCell>
        <mxCell id="07QtRGWR2-FWHr-63keU-11" style="edgeStyle=orthogonalEdgeStyle;curved=1;orthogonalLoop=1;jettySize=auto;html=1;entryX=0;entryY=0.5;entryDx=0;entryDy=0;fillColor=#dae8fc;strokeColor=#6c8ebf;strokeWidth=3;dashed=1;" edge="1" parent="1" source="07QtRGWR2-FWHr-63keU-12" target="07QtRGWR2-FWHr-63keU-14">
          <mxGeometry relative="1" as="geometry" />
        </mxCell>
        <mxCell id="07QtRGWR2-FWHr-63keU-12" value="inboundcluster" style="rounded=1;whiteSpace=wrap;html=1;fillColor=#dae8fc;strokeColor=#6c8ebf;" vertex="1" parent="1">
          <mxGeometry x="329" y="-395" width="130" height="30" as="geometry" />
        </mxCell>
        <mxCell id="07QtRGWR2-FWHr-63keU-13" style="edgeStyle=orthogonalEdgeStyle;curved=1;orthogonalLoop=1;jettySize=auto;html=1;exitX=0;exitY=0.75;exitDx=0;exitDy=0;entryX=0.908;entryY=0.35;entryDx=0;entryDy=0;entryPerimeter=0;dashed=1;fontSize=11;strokeWidth=3;fillColor=#f8cecc;strokeColor=#b85450;" edge="1" parent="1" source="07QtRGWR2-FWHr-63keU-14" target="07QtRGWR2-FWHr-63keU-19">
          <mxGeometry relative="1" as="geometry" />
        </mxCell>
        <mxCell id="07QtRGWR2-FWHr-63keU-14" value="business A" style="rounded=1;whiteSpace=wrap;html=1;fillColor=#ffe6cc;strokeColor=#d79b00;" vertex="1" parent="1">
          <mxGeometry x="519" y="-600" width="200" height="250" as="geometry" />
        </mxCell>
        <mxCell id="07QtRGWR2-FWHr-63keU-15" style="edgeStyle=orthogonalEdgeStyle;curved=1;orthogonalLoop=1;jettySize=auto;html=1;exitX=0.4;exitY=0.1;exitDx=0;exitDy=0;exitPerimeter=0;entryX=0;entryY=0.5;entryDx=0;entryDy=0;fontSize=11;fillColor=#dae8fc;strokeColor=#6c8ebf;dashed=1;strokeWidth=4;" edge="1" parent="1" source="07QtRGWR2-FWHr-63keU-19" target="07QtRGWR2-FWHr-63keU-7">
          <mxGeometry relative="1" as="geometry">
            <Array as="points">
              <mxPoint x="408" y="-300" />
              <mxPoint x="99" y="-300" />
              <mxPoint x="99" y="-380" />
            </Array>
          </mxGeometry>
        </mxCell>
        <mxCell id="07QtRGWR2-FWHr-63keU-16" value="inbound" style="edgeLabel;html=1;align=center;verticalAlign=middle;resizable=0;points=[];fontSize=11;" vertex="1" connectable="0" parent="07QtRGWR2-FWHr-63keU-15">
          <mxGeometry x="-0.0552" y="-6" relative="1" as="geometry">
            <mxPoint as="offset" />
          </mxGeometry>
        </mxCell>
        <mxCell id="07QtRGWR2-FWHr-63keU-17" style="edgeStyle=orthogonalEdgeStyle;curved=1;orthogonalLoop=1;jettySize=auto;html=1;exitX=0.16;exitY=0.55;exitDx=0;exitDy=0;exitPerimeter=0;entryX=0;entryY=0.5;entryDx=0;entryDy=0;fontSize=11;fillColor=#f8cecc;strokeColor=#b85450;dashed=1;strokeWidth=4;" edge="1" parent="1" source="07QtRGWR2-FWHr-63keU-19" target="07QtRGWR2-FWHr-63keU-10">
          <mxGeometry relative="1" as="geometry">
            <Array as="points">
              <mxPoint x="346" y="-240" />
              <mxPoint x="69" y="-240" />
              <mxPoint x="69" y="-475" />
            </Array>
          </mxGeometry>
        </mxCell>
        <mxCell id="07QtRGWR2-FWHr-63keU-18" value="outbound" style="edgeLabel;html=1;align=center;verticalAlign=middle;resizable=0;points=[];fontSize=11;" vertex="1" connectable="0" parent="07QtRGWR2-FWHr-63keU-17">
          <mxGeometry x="-0.3747" y="2" relative="1" as="geometry">
            <mxPoint as="offset" />
          </mxGeometry>
        </mxCell>
        <mxCell id="07QtRGWR2-FWHr-63keU-19" value="&lt;font style=&quot;font-size: 24px&quot;&gt;iptables&lt;/font&gt;" style="ellipse;shape=cloud;whiteSpace=wrap;html=1;dashed=1;strokeWidth=3;fillColor=#e1d5e7;strokeColor=#9673a6;" vertex="1" parent="1">
          <mxGeometry x="304" y="-300" width="260" height="80" as="geometry" />
        </mxCell>
        <mxCell id="07QtRGWR2-FWHr-63keU-20" value="Sidecar" style="text;html=1;strokeColor=none;fillColor=none;align=center;verticalAlign=middle;whiteSpace=wrap;rounded=0;dashed=1;fontSize=11;" vertex="1" parent="1">
          <mxGeometry x="189" y="-580" width="60" height="30" as="geometry" />
        </mxCell>
        <mxCell id="07QtRGWR2-FWHr-63keU-21" value="&lt;font style=&quot;font-size: 24px&quot;&gt;output&lt;/font&gt;" style="ellipse;shape=cloud;whiteSpace=wrap;html=1;dashed=1;strokeWidth=3;fillColor=#f8cecc;strokeColor=#b85450;" vertex="1" parent="1">
          <mxGeometry x="284" y="-710" width="260" height="80" as="geometry" />
        </mxCell>
        <mxCell id="07QtRGWR2-FWHr-63keU-22" style="edgeStyle=orthogonalEdgeStyle;curved=1;orthogonalLoop=1;jettySize=auto;html=1;exitX=0.4;exitY=0.1;exitDx=0;exitDy=0;exitPerimeter=0;entryX=0.519;entryY=0.875;entryDx=0;entryDy=0;entryPerimeter=0;dashed=1;fontSize=11;strokeWidth=3;fillColor=#dae8fc;strokeColor=#6c8ebf;" edge="1" parent="1" source="07QtRGWR2-FWHr-63keU-23" target="07QtRGWR2-FWHr-63keU-19">
          <mxGeometry relative="1" as="geometry" />
        </mxCell>
        <mxCell id="07QtRGWR2-FWHr-63keU-23" value="&lt;span style=&quot;font-size: 24px&quot;&gt;input&lt;/span&gt;" style="ellipse;shape=cloud;whiteSpace=wrap;html=1;dashed=1;strokeWidth=3;fillColor=#dae8fc;strokeColor=#6c8ebf;" vertex="1" parent="1">
          <mxGeometry x="304" y="-205" width="260" height="80" as="geometry" />
        </mxCell>
      </root>
    </mxGraphModel>
  </diagram>
</mxfile>
